<svg width="92" height="33" xmlns="http://www.w3.org/2000/svg"><path d="M79.819 20.36c5.826.022 10.479-2.684 11.201-4.816V4.924C90.082 2.308 85.446 0 78.899 0H49.785v6.98h25.217c.897 0 2.598.727 2.598 1.624v3.012c0 .896-1.701 1.623-2.598 1.623H61.149c-5.538 0-11.364 2.883-11.364 6.44v10.346l-13.42-15.852L47.566 0H27.198l-9.416 12.04V0H0V31.682l17.776-18.876 5.475 5.935 3.319-3.193 13.731 16.906H91.02v-6.98H63.638v-3.49c.018-1.241 2.243-1.624 3.139-1.624h13.042z" fill="#FFF" fill-rule="evenodd"/></svg>